<svg width="39" height="39" viewBox="0 0 39 39" fill="none" xmlns="http://www.w3.org/2000/svg">
<path d="M30.8017 8.10518C29.0022 8.10518 27.5593 9.54801 27.5593 11.3475V22.3065C26.5218 23.2306 25.9382 24.56 25.9382 25.9379C25.9382 28.6291 28.1105 30.8014 30.8017 30.8014C33.4928 30.8014 35.6651 28.6291 35.6651 25.9379C35.6651 24.56 35.0815 23.2306 34.044 22.3228V11.3475C34.044 9.54801 32.6012 8.10518 30.8017 8.10518ZM30.8017 9.72634C31.6933 9.72634 32.4228 10.4559 32.4228 11.3475V12.9687H29.1805V11.3475C29.1805 10.4559 29.91 9.72634 30.8017 9.72634ZM12.9689 5.73828L11.753 7.10006C11.753 7.10006 9.67795 9.45074 7.58665 12.4985C5.49536 15.5463 3.24194 19.1939 3.24194 22.6956C3.24194 28.0617 7.60286 32.4226 12.9689 32.4226C18.3349 32.4226 22.6959 28.0617 22.6959 22.6956C22.6959 19.1939 20.4425 15.5463 18.3512 12.4985C16.2599 9.45074 14.1848 7.10006 14.1848 7.10006L12.9689 5.73828ZM12.9689 10.8125C13.6822 11.6555 14.3307 12.3526 15.6925 14.3304C17.6541 17.1837 19.4535 20.8151 19.4535 22.6956C19.4535 26.2946 16.5679 29.1803 12.9689 29.1803C9.36993 29.1803 6.48426 26.2946 6.48426 22.6956C6.48426 20.8151 8.28375 17.1837 10.2454 14.3304C11.6071 12.3526 12.2556 11.6555 12.9689 10.8125Z" fill="#FF6B00"/>
</svg>
